<svg width="38" height="38" viewBox="0 0 38 38" fill="none" xmlns="http://www.w3.org/2000/svg">
<rect width="38" height="38" rx="8" fill="white"/>
<mask id="mask0_43_8104" style="mask-type:luminance" maskUnits="userSpaceOnUse" x="5" y="7" width="28" height="24">
<rect x="5" y="7.5" width="28" height="23" rx="4" fill="white"/>
</mask>
<g mask="url(#mask0_43_8104)">
<path d="M29.5 32.5C29.5 38.0228 25.0228 42.5 19.5 42.5C13.9772 42.5 9.5 38.0228 9.5 32.5C9.5 26.9772 13.9772 22.5 19.5 22.5C25.0228 22.5 29.5 26.9772 29.5 32.5Z" stroke="#1E3542" stroke-width="2"/>
<path d="M24.5 17.5C24.5 20.2614 22.2614 22.5 19.5 22.5C16.7386 22.5 14.5 20.2614 14.5 17.5C14.5 14.7386 16.7386 12.5 19.5 12.5C22.2614 12.5 24.5 14.7386 24.5 17.5Z" stroke="#1E3542" stroke-width="2"/>
</g>
</svg>
