<svg width="39" height="31" viewBox="0 0 39 31" fill="none" xmlns="http://www.w3.org/2000/svg">
<path d="M23.2537 10.5005C23.2537 11.8266 22.7269 13.0984 21.7892 14.0362C20.8515 14.9739 19.5796 15.5007 18.2535 15.5007C16.9273 15.5007 15.6555 14.9739 14.7178 14.0362C13.7801 13.0984 13.2533 11.8266 13.2533 10.5005C13.2533 9.17431 13.7801 7.90249 14.7178 6.96476C15.6555 6.02704 16.9273 5.50023 18.2535 5.50023C19.5796 5.50023 20.8515 6.02704 21.7892 6.96476C22.7269 7.90249 23.2537 9.17431 23.2537 10.5005ZM0.752686 4.8752C0.752686 2.46009 2.71278 0.5 5.12789 0.5H31.3791C33.7942 0.5 35.7543 2.46009 35.7543 4.8752V5.96275C34.9655 5.62559 34.1112 5.46926 33.2542 5.50523V4.8752C33.2542 4.3779 33.0566 3.90096 32.705 3.54931C32.3533 3.19767 31.8764 3.00011 31.3791 3.00011H5.12789C4.63058 3.00011 4.15365 3.19767 3.802 3.54931C3.45035 3.90096 3.2528 4.3779 3.2528 4.8752V21.1259C3.2528 22.161 4.09284 23.001 5.12789 23.001H10.7531V20.5009C10.7531 19.8378 11.0165 19.2019 11.4854 18.7331C11.9543 18.2642 12.5902 18.0008 13.2533 18.0008H23.2537C23.7919 18.0009 24.3157 18.1747 24.7472 18.4963C25.1787 18.8179 25.4949 19.2702 25.6488 19.7859C24.805 19.6596 23.9431 19.7442 23.14 20.0321C22.3368 20.32 21.6175 20.8023 21.0461 21.436L19.6836 22.956C19.0085 23.7086 18.576 24.5886 18.3785 25.5011H5.12789C4.55333 25.5011 3.98439 25.388 3.45357 25.1681C2.92275 24.9482 2.44043 24.626 2.03415 24.2197C1.62788 23.8134 1.3056 23.3311 1.08573 22.8003C0.865853 22.2694 0.752686 21.7005 0.752686 21.1259V4.8752ZM29.714 11.953L30.4215 10.0779C31.0666 8.37786 33.0767 7.53782 34.7717 8.26036L35.7418 8.67537C36.9243 9.1804 37.9044 10.0954 38.1094 11.3255C39.2519 18.1383 33.3392 27.8288 26.5339 30.3014C25.3038 30.7464 23.9762 30.4014 22.9212 29.6863L22.0562 29.0988C21.701 28.8596 21.402 28.5462 21.1797 28.1802C20.9575 27.8142 20.8173 27.4043 20.7688 26.9789C20.7203 26.5534 20.7647 26.1225 20.8989 25.7159C21.0331 25.3093 21.2539 24.9366 21.5461 24.6236L22.9087 23.106C23.2281 22.7527 23.6364 22.4914 24.091 22.3494C24.5457 22.2074 25.0301 22.1898 25.4938 22.2985L28.5565 23.0235C30.9841 21.506 32.2866 19.3734 32.4616 16.6232L30.2665 14.4731C29.9379 14.1533 29.7103 13.744 29.6121 13.296C29.5139 12.848 29.5493 12.3811 29.714 11.953Z" fill="white"/>
</svg>
