<svg width="13" height="13" viewBox="0 0 13 13" fill="none" xmlns="http://www.w3.org/2000/svg">
<circle cx="6.5" cy="6.5" r="6.125" fill="white" stroke="#E01818" stroke-width="0.75"/>
<path d="M4.1216 4.13241C4.19957 4.05471 4.30525 4.01107 4.41544 4.01107C4.52563 4.01107 4.63131 4.05471 4.70927 4.13241L6.49445 5.91382L8.27964 4.13241C8.33046 4.0778 8.39511 4.03787 8.46676 4.01684C8.53842 3.99581 8.61443 3.99445 8.6868 4.01291C8.75916 4.03138 8.82519 4.06898 8.87794 4.12175C8.93068 4.17452 8.96819 4.24051 8.9865 4.31277C9.00503 4.3849 9.00374 4.46067 8.98276 4.53213C8.96179 4.60359 8.9219 4.66808 8.86731 4.71884L7.08212 6.50025L8.86731 8.28165C8.92204 8.33237 8.96205 8.39688 8.98313 8.46838C9.0042 8.53989 9.00556 8.61574 8.98706 8.68795C8.96856 8.76016 8.93088 8.82605 8.878 8.87869C8.82511 8.93132 8.75898 8.96875 8.68657 8.98703C8.61429 9.00551 8.53835 9.00422 8.46674 8.98329C8.39513 8.96236 8.3305 8.92256 8.27964 8.86808L6.49445 7.08667L4.70927 8.86808C4.6304 8.94133 4.52614 8.98122 4.41841 8.97937C4.31068 8.97751 4.20787 8.93405 4.13158 8.85812C4.05549 8.782 4.01194 8.6794 4.01008 8.5719C4.00822 8.46439 4.0482 8.36036 4.1216 8.28165L5.90679 6.50025L4.1216 4.71884C4.04374 4.64104 4 4.53558 4 4.42563C4 4.31567 4.04374 4.21021 4.1216 4.13241Z" fill="#E01818"/>
</svg>
