<svg width="28" height="28" viewBox="0 0 28 28" fill="none" xmlns="http://www.w3.org/2000/svg">
<rect width="28" height="28" rx="14" fill="url(#paint0_linear_430_4816)"/>
<g clip-path="url(#clip0_430_4816)">
<path d="M17.7075 10.6117C18.1465 10.6117 18.5024 10.2558 18.5024 9.8168C18.5024 9.37781 18.1465 9.02194 17.7075 9.02194C17.2685 9.02194 16.9127 9.37781 16.9127 9.8168C16.9127 10.2558 17.2685 10.6117 17.7075 10.6117Z" fill="white"/>
<path d="M19.3247 7.58531C21.2967 7.58531 21.9614 9.18511 22.1667 9.95062C22.1667 9.95062 22.2428 10.1725 22.2502 11.4092C22.2502 11.4092 23.9609 11.5211 23.9609 13.12V14.7207C23.9609 14.7207 23.9325 16.3177 22.3648 16.3177H22.2657C22.2657 16.3177 22.2437 18.0789 20.7787 18.782C19.3137 19.4852 18.6481 19.7988 18.6481 19.7988C18.6481 19.7988 18.6481 20.0921 18.2575 20.2682C17.867 20.4442 17.5736 20.4827 17.3408 20.2682C17.1079 20.0536 17.184 19.642 17.36 19.5054C17.36 19.5054 17.7166 19.2359 17.9183 19.1772C18.0061 19.1453 18.0999 19.1337 18.1928 19.1432C18.2857 19.1527 18.3752 19.1831 18.4547 19.2322C18.4547 19.2322 19.3146 18.8407 20.5064 18.1962C20.8468 18.0169 21.1302 17.746 21.3246 17.414C21.519 17.082 21.6167 16.7023 21.6066 16.3177V10.542C21.6066 10.542 21.6322 8.26282 19.3284 8.26282H19.2523C19.1628 8.26282 19.077 8.22727 19.0137 8.164C18.9504 8.10073 18.9149 8.01492 18.9149 7.92544C18.9149 7.83596 18.9504 7.75015 19.0137 7.68688C19.077 7.62361 19.1628 7.58806 19.2523 7.58806L19.3247 7.58531Z" fill="white"/>
<path d="M19.6364 13.8774C19.2248 13.9516 18.9452 14.2441 17.3573 14.2441C15.7694 14.2441 15.6374 13.7444 15.5237 13.6023C15.41 13.4602 15.4137 13.1614 15.4137 13.1614V12.5691C15.377 12.0695 14.8636 12.1107 14.8636 12.1107C14.7867 12.1113 14.7105 12.0967 14.6392 12.0677C14.568 12.0386 14.5033 11.9957 14.4487 11.9415C14.3941 11.8873 14.3509 11.8228 14.3214 11.7518C14.2919 11.6807 14.2768 11.6046 14.2769 11.5277C14.2764 11.4495 14.292 11.3721 14.3227 11.3003C14.3227 11.3003 14.452 10.9739 14.6583 10.5614C14.6583 10.5614 15.1515 9.59231 15.2817 9.30903C15.3622 9.11096 15.4046 8.89942 15.4064 8.68561C15.4064 8.39383 15.2905 8.11401 15.0842 7.90769C14.8778 7.70137 14.598 7.58546 14.3062 7.58546H10.0808C8.47817 7.58546 6.94123 8.22209 5.80803 9.35529C4.67483 10.4885 4.03821 12.0254 4.03821 13.628C4.03821 15.2306 4.67483 16.7675 5.80803 17.9007C6.94123 19.0339 8.47817 19.6706 10.0808 19.6706H14.4346C14.4346 19.6706 15.4495 19.7393 15.4495 18.6548V17.1201C15.4495 17.1201 15.4128 16.57 15.7694 16.57C16.4722 16.5749 17.1698 16.4506 17.8276 16.2033C18.9158 15.8063 19.4311 15.3507 20.0187 14.7364C20.6064 14.1222 20.0481 13.804 19.6364 13.8774ZM12.8009 13.9461C12.7587 14.0106 12.7038 14.0659 12.6395 14.1084L9.56552 15.942C9.49483 15.9723 9.41873 15.9879 9.34183 15.9878C9.18913 15.9878 9.04269 15.9272 8.93471 15.8192C8.82674 15.7112 8.76608 15.5648 8.76608 15.4121V11.8458C8.76608 11.6931 8.82674 11.5466 8.93471 11.4387C9.04269 11.3307 9.18913 11.27 9.34183 11.27C9.41867 11.2697 9.49477 11.285 9.56552 11.315L12.6377 13.1485C12.7651 13.2327 12.8538 13.364 12.8844 13.5135C12.915 13.6631 12.885 13.8187 12.8009 13.9461Z" fill="white"/>
</g>
<defs>
<linearGradient id="paint0_linear_430_4816" x1="1.81746" y1="-3.92" x2="41.3035" y2="9.89986" gradientUnits="userSpaceOnUse">
<stop stop-color="#E15757"/>
<stop offset="1" stop-color="#D7A801"/>
</linearGradient>
<clipPath id="clip0_430_4816">
<rect width="19.9236" height="12.8295" fill="white" transform="translate(4.03821 7.58524)"/>
</clipPath>
</defs>
</svg>
