<svg width="16" height="18" viewBox="0 0 16 18" fill="none" xmlns="http://www.w3.org/2000/svg">
<path d="M12.1726 3.28592C11.6216 2.80856 10.9103 2.5576 10.1818 2.58353C9.45325 2.60945 8.76158 2.91035 8.24594 3.42567L2.46333 9.20657C2.34631 9.33216 2.20519 9.43288 2.0484 9.50274C1.89161 9.57261 1.72235 9.61017 1.55073 9.6132C1.3791 9.61623 1.20862 9.58466 1.04946 9.52037C0.890305 9.45608 0.745724 9.3604 0.624348 9.23902C0.502971 9.11764 0.407285 8.97306 0.342998 8.8139C0.278711 8.65475 0.24714 8.48427 0.250168 8.31264C0.253197 8.14102 0.290762 7.97176 0.360624 7.81497C0.430485 7.65817 0.531212 7.51706 0.656795 7.40004L6.4377 1.61913C6.94561 1.10439 7.55104 0.696085 8.21861 0.418079C8.88617 0.140073 9.60246 -0.00204906 10.3256 2.232e-05C11.0487 0.0020937 11.7642 0.148317 12.4301 0.430143C13.0961 0.711968 13.6992 1.12374 14.2041 1.64138C14.7091 2.15902 15.1058 2.77214 15.371 3.44488C15.6362 4.11763 15.7646 4.8365 15.7487 5.55946C15.7329 6.28242 15.573 6.99496 15.2785 7.65542C14.9841 8.31588 14.5608 8.91099 14.0337 9.40597L5.98436 17.0684C5.36218 17.6754 4.52434 18.0105 3.65515 17.9998C2.78596 17.989 1.95662 17.6335 1.34958 17.0113C0.742544 16.3891 0.407528 15.5513 0.418235 14.6821C0.428942 13.8129 0.784495 12.9836 1.40668 12.3765L8.63792 5.14358C8.75589 5.02155 8.89698 4.92424 9.05296 4.85733C9.20894 4.79041 9.37668 4.75523 9.5464 4.75384C9.71612 4.75244 9.88442 4.78486 10.0415 4.84921C10.1985 4.91355 10.3412 5.00853 10.4612 5.1286C10.5811 5.24867 10.676 5.39143 10.7402 5.54854C10.8043 5.70566 10.8366 5.87399 10.8351 6.04371C10.8335 6.21343 10.7982 6.38113 10.7311 6.53705C10.664 6.69296 10.5666 6.83396 10.4445 6.95181L3.21832 14.1848C3.0919 14.3203 3.02251 14.4992 3.02455 14.6845C3.0266 14.8698 3.09992 15.0472 3.2293 15.1799C3.35868 15.3126 3.53418 15.3903 3.71937 15.397C3.90457 15.4037 4.08522 15.3388 4.22385 15.2159L12.2714 7.55342C12.5626 7.27633 12.7926 6.94142 12.9467 6.5702C13.1008 6.19897 13.1756 5.79963 13.1663 5.3978C13.157 4.99596 13.0638 4.60051 12.8927 4.23682C12.7215 3.87313 12.4763 3.54924 12.1726 3.28592Z" fill="url(#paint0_linear_367_19216)"/>
<defs>
<linearGradient id="paint0_linear_367_19216" x1="1.25607" y1="-2.52" x2="23.749" y2="4.25904" gradientUnits="userSpaceOnUse">
<stop stop-color="#E15757"/>
<stop offset="1" stop-color="#D7A801"/>
</linearGradient>
</defs>
</svg>
