<svg width="23" height="24" viewBox="0 0 23 24" fill="none" xmlns="http://www.w3.org/2000/svg">
<path d="M13.8959 13.14C13.8959 12.8217 13.7695 12.5165 13.5445 12.2915C13.3194 12.0664 13.0142 11.94 12.6959 11.94H6.69592C6.37766 11.94 6.07244 12.0664 5.8474 12.2915C5.62235 12.5165 5.49592 12.8217 5.49592 13.14C5.49592 13.4583 5.62235 13.7635 5.8474 13.9885C6.07244 14.2136 6.37766 14.34 6.69592 14.34H12.6959C13.0142 14.34 13.3194 14.2136 13.5445 13.9885C13.7695 13.7635 13.8959 13.4583 13.8959 13.14ZM19.8959 19.14C19.3862 19.1417 18.8903 19.3056 18.4799 19.608L16.3799 18.648L18.6719 17.592C19.0342 17.8119 19.4482 17.932 19.8719 17.94C20.3466 17.94 20.8106 17.7992 21.2053 17.5355C21.6 17.2718 21.9076 16.897 22.0892 16.4584C22.2709 16.0199 22.3184 15.5373 22.2258 15.0718C22.1332 14.6062 21.9046 14.1786 21.569 13.8429C21.2333 13.5073 20.8057 13.2787 20.3401 13.1861C19.8746 13.0935 19.392 13.141 18.9535 13.3227C18.5149 13.5043 18.1401 13.812 17.8764 14.2066C17.6127 14.6013 17.4719 15.0653 17.4719 15.54L15.2039 16.584C14.8932 16.3635 14.5344 16.2202 14.1573 16.1659C13.7801 16.1116 13.3955 16.1478 13.0352 16.2716C12.6748 16.3955 12.3491 16.6033 12.0851 16.878C11.821 17.1526 11.6261 17.4862 11.5165 17.8511C11.4069 18.2161 11.3858 18.6018 11.4549 18.9765C11.524 19.3512 11.6813 19.7041 11.9138 20.006C12.1464 20.3078 12.4474 20.55 12.7921 20.7124C13.1367 20.8748 13.5151 20.9528 13.8959 20.94C14.2825 20.9402 14.6627 20.841 14.9999 20.652L17.5199 21.852C17.5731 22.3112 17.7577 22.7452 18.0516 23.1019C18.3455 23.4587 18.7362 23.723 19.1767 23.8631C19.6171 24.0032 20.0887 24.0131 20.5347 23.8916C20.9807 23.7701 21.3821 23.5225 21.6907 23.1784C21.9993 22.8343 22.202 22.4084 22.2744 21.9518C22.3468 21.4953 22.2858 21.0276 22.0988 20.6049C21.9118 20.1822 21.6067 19.8225 21.2202 19.569C20.8336 19.3155 20.3821 19.1791 19.9199 19.176L19.8959 19.14ZM10.2959 21.54H4.29592C3.97766 21.54 3.67244 21.4136 3.4474 21.1885C3.22235 20.9635 3.09592 20.6583 3.09592 20.34V3.54C3.09592 3.22174 3.22235 2.91652 3.4474 2.69147C3.67244 2.46643 3.97766 2.34 4.29592 2.34H10.2959V5.94C10.2959 6.89478 10.6752 7.81045 11.3503 8.48559C12.0255 9.16072 12.9411 9.54 13.8959 9.54H17.4959C17.4959 9.85826 17.6224 10.1635 17.8474 10.3885C18.0724 10.6136 18.3777 10.74 18.6959 10.74C19.0142 10.74 19.3194 10.6136 19.5445 10.3885C19.7695 10.1635 19.8959 9.85826 19.8959 9.54V8.268C19.8834 8.15776 19.8593 8.04916 19.8239 7.944V7.836C19.7662 7.71262 19.6893 7.5992 19.5959 7.5L12.3959 0.3C12.2967 0.206659 12.1833 0.129697 12.0599 0.0720001C12.0202 0.0650515 11.9796 0.0650515 11.9399 0.0720001C11.8392 0.0354283 11.7345 0.0112504 11.6279 0H4.29592C3.34114 0 2.42547 0.379285 1.75034 1.05442C1.07521 1.72955 0.695923 2.64522 0.695923 3.6V20.4C0.695923 21.3548 1.07521 22.2705 1.75034 22.9456C2.42547 23.6207 3.34114 24 4.29592 24H10.2959C10.6142 24 10.9194 23.8736 11.1445 23.6485C11.3695 23.4235 11.4959 23.1183 11.4959 22.8C11.4959 22.4817 11.3695 22.1765 11.1445 21.9515C10.9194 21.7264 10.6142 21.6 10.2959 21.6V21.54ZM12.6959 4.032L15.8039 7.14H13.8959C13.5777 7.14 13.2724 7.01357 13.0474 6.78853C12.8224 6.56348 12.6959 6.25826 12.6959 5.94V4.032ZM6.69592 16.74C6.37766 16.74 6.07244 16.8664 5.8474 17.0915C5.62235 17.3165 5.49592 17.6217 5.49592 17.94C5.49592 18.2583 5.62235 18.5635 5.8474 18.7885C6.07244 19.0136 6.37766 19.14 6.69592 19.14H7.89592C8.21418 19.14 8.51941 19.0136 8.74445 18.7885C8.9695 18.5635 9.09592 18.2583 9.09592 17.94C9.09592 17.6217 8.9695 17.3165 8.74445 17.0915C8.51941 16.8664 8.21418 16.74 7.89592 16.74H6.69592ZM6.69592 9.54H7.89592C8.21418 9.54 8.51941 9.41357 8.74445 9.18853C8.9695 8.96348 9.09592 8.65826 9.09592 8.34C9.09592 8.02174 8.9695 7.71652 8.74445 7.49147C8.51941 7.26643 8.21418 7.14 7.89592 7.14H6.69592C6.37766 7.14 6.07244 7.26643 5.8474 7.49147C5.62235 7.71652 5.49592 8.02174 5.49592 8.34C5.49592 8.65826 5.62235 8.96348 5.8474 9.18853C6.07244 9.41357 6.37766 9.54 6.69592 9.54Z" fill="#232E31"/>
</svg>
