<svg width="126" height="38" viewBox="0 0 126 38" fill="none" xmlns="http://www.w3.org/2000/svg">
<path d="M64.8699 35.2437C64.3878 35.2437 63.9577 35.1385 63.5796 34.9282C63.2039 34.7155 62.9073 34.4166 62.6899 34.0314C62.4748 33.6438 62.3673 33.1877 62.3673 32.6631C62.3673 32.1385 62.476 31.6836 62.6934 31.2984C62.9132 30.9108 63.2133 30.6119 63.5938 30.4016C63.9766 30.1889 64.4114 30.0825 64.8982 30.0825C65.1511 30.0825 65.3921 30.1097 65.6214 30.1641C65.8506 30.2184 66.0515 30.2881 66.224 30.3732L66.1531 30.9971C65.9758 30.912 65.7809 30.8399 65.5682 30.7808C65.3555 30.7218 65.1298 30.6922 64.8912 30.6922C64.5012 30.6922 64.1739 30.7808 63.9093 30.9581C63.6446 31.133 63.4437 31.3693 63.3067 31.667C63.172 31.9648 63.1046 32.2968 63.1046 32.6631C63.1046 33.0294 63.1708 33.3614 63.3031 33.6592C63.4378 33.9569 63.6363 34.1944 63.8986 34.3717C64.1633 34.5465 64.4894 34.634 64.877 34.634C65.1227 34.634 65.3496 34.608 65.5576 34.556C65.7679 34.5016 65.9664 34.4284 66.1531 34.3362L66.224 34.9601C66.0467 35.0404 65.8471 35.1078 65.6249 35.1621C65.4028 35.2165 65.1511 35.2437 64.8699 35.2437ZM68.0358 35.2153C67.764 35.2153 67.5324 35.161 67.341 35.0522C67.1496 34.9412 67.0031 34.7734 66.9015 34.5489C66.8022 34.3244 66.7526 34.0385 66.7526 33.6911V31.6706H67.3906V33.5138C67.3906 33.8825 67.4533 34.1637 67.5785 34.3575C67.7061 34.5513 67.9129 34.6481 68.1988 34.6481C68.395 34.6481 68.5769 34.6009 68.7447 34.5064C68.9125 34.4118 69.0283 34.2606 69.0921 34.0526L68.9999 34.4V31.6706H69.638V35.1444H69.0708L68.9432 34.4638L69.1134 34.5773C68.9976 34.7923 68.8558 34.953 68.688 35.0593C68.5226 35.1633 68.3052 35.2153 68.0358 35.2153ZM71.4913 35.2153C71.1841 35.2153 70.9288 35.1787 70.7256 35.1054C70.5247 35.0322 70.383 34.9672 70.3002 34.9105L70.3782 34.2937C70.4538 34.3598 70.5874 34.4355 70.7788 34.5205C70.9702 34.6056 71.1982 34.6481 71.4629 34.6481C71.6874 34.6481 71.8587 34.6103 71.9769 34.5347C72.0974 34.4591 72.1577 34.3528 72.1577 34.2157C72.1577 34.0952 72.1187 33.9983 72.0407 33.925C71.9651 33.8494 71.8729 33.7903 71.7642 33.7478C71.6579 33.7029 71.5574 33.6674 71.4629 33.6414C71.3046 33.5989 71.1403 33.5457 70.9702 33.4819C70.8024 33.4158 70.6606 33.3177 70.5448 33.1877C70.429 33.0577 70.3711 32.8758 70.3711 32.6418C70.3711 32.4646 70.4137 32.2968 70.4987 32.1385C70.5838 31.9778 70.7221 31.8478 70.9135 31.7486C71.1049 31.6493 71.3589 31.5997 71.6756 31.5997C71.9072 31.5997 72.0951 31.6245 72.2392 31.6741C72.3857 31.7214 72.5122 31.7722 72.6185 31.8265L72.5405 32.4079C72.4389 32.3228 72.3207 32.2507 72.186 32.1917C72.0513 32.1326 71.8859 32.103 71.6898 32.103C71.4913 32.103 71.3294 32.1408 71.2041 32.2165C71.0789 32.2897 71.0163 32.4079 71.0163 32.5709C71.0163 32.734 71.0824 32.8498 71.2148 32.9183C71.3495 32.9869 71.5527 33.0625 71.8245 33.1452C71.9096 33.1688 72.0076 33.2031 72.1187 33.248C72.2321 33.2929 72.342 33.3531 72.4483 33.4288C72.5547 33.5044 72.6421 33.6036 72.7107 33.7265C72.7816 33.847 72.817 33.9983 72.817 34.1802C72.817 34.3338 72.7804 34.491 72.7071 34.6517C72.6339 34.81 72.5015 34.9435 72.3101 35.0522C72.1187 35.161 71.8457 35.2153 71.4913 35.2153ZM74.6394 35.2153C74.4197 35.2153 74.2436 35.1751 74.1113 35.0948C73.9789 35.0144 73.882 34.9116 73.8206 34.7864C73.7615 34.6588 73.732 34.5253 73.732 34.3858V32.1668H73.1365L73.1932 31.6706H73.732V30.8128L74.37 30.7489V31.6706H75.2846V32.1668H74.37V33.9959C74.37 34.2181 74.383 34.3787 74.409 34.478C74.435 34.5773 74.4988 34.6399 74.6004 34.6659C74.7044 34.6919 74.871 34.7049 75.1002 34.7049H75.2633L75.2137 35.2153H74.6394ZM77.3193 35.2153C76.9554 35.2153 76.6446 35.135 76.387 34.9743C76.1318 34.8112 75.9357 34.5938 75.7986 34.322C75.6639 34.0479 75.5966 33.7431 75.5966 33.4075C75.5966 33.0719 75.6639 32.7683 75.7986 32.4965C75.9357 32.2224 76.1318 32.005 76.387 31.8443C76.6446 31.6812 76.9554 31.5997 77.3193 31.5997C77.6809 31.5997 77.9904 31.6812 78.248 31.8443C78.5056 32.005 78.7017 32.2224 78.8364 32.4965C78.9735 32.7683 79.042 33.0719 79.042 33.4075C79.042 33.7431 78.9735 34.0479 78.8364 34.322C78.7017 34.5938 78.5056 34.8112 78.248 34.9743C77.9904 35.135 77.6809 35.2153 77.3193 35.2153ZM77.3193 34.6481C77.6643 34.6481 77.929 34.5394 78.1133 34.322C78.2976 34.1023 78.3898 33.7974 78.3898 33.4075C78.3898 33.0176 78.2976 32.7139 78.1133 32.4965C77.929 32.2767 77.6643 32.1668 77.3193 32.1668C76.9766 32.1668 76.712 32.2767 76.5253 32.4965C76.341 32.7139 76.2488 33.0176 76.2488 33.4075C76.2488 33.7974 76.341 34.1023 76.5253 34.322C76.712 34.5394 76.9766 34.6481 77.3193 34.6481ZM79.7 35.1444V31.6706H80.1962L80.3238 32.337L80.0828 32.2236C80.3002 31.9896 80.5117 31.8277 80.7173 31.7379C80.9229 31.6458 81.1391 31.5997 81.366 31.5997C81.5361 31.5997 81.6992 31.628 81.8552 31.6848C82.0135 31.7391 82.1553 31.836 82.2805 31.9754C82.4081 32.1125 82.5098 32.3039 82.5854 32.5497L82.4081 32.4717C82.5121 32.2023 82.6716 31.9896 82.8867 31.8336C83.1017 31.6777 83.3912 31.5997 83.7551 31.5997C84.0458 31.5997 84.2904 31.654 84.4889 31.7627C84.6874 31.8691 84.8363 32.0333 84.9355 32.2555C85.0372 32.4752 85.088 32.7553 85.088 33.0956V35.1444H84.4499V33.1026C84.4499 32.7765 84.3861 32.539 84.2585 32.3902C84.1309 32.2413 83.9229 32.1668 83.6346 32.1668C83.4314 32.1668 83.2683 32.1987 83.1455 32.2625C83.0226 32.324 82.9292 32.4043 82.8654 32.5036C82.804 32.6028 82.7626 32.708 82.7414 32.8191C82.7224 32.9301 82.713 33.0341 82.713 33.131V35.1444H82.0749V33.2303C82.0749 32.9467 82.0407 32.7281 81.9721 32.5745C81.9036 32.4209 81.8079 32.3145 81.685 32.2555C81.5621 32.1964 81.4204 32.1668 81.2597 32.1668C81.0257 32.1668 80.8166 32.2188 80.6322 32.3228C80.4479 32.4244 80.3238 32.5875 80.26 32.812L80.338 32.4646V35.1444H79.7ZM87.5831 35.2153C87.1743 35.2153 86.8305 35.1314 86.5516 34.9636C86.2727 34.7958 86.0612 34.5737 85.9171 34.2972C85.7753 34.0184 85.7044 33.7123 85.7044 33.3791C85.7044 33.0554 85.7706 32.7588 85.9029 32.4894C86.0376 32.22 86.2314 32.005 86.4843 31.8443C86.7395 31.6812 87.0467 31.5997 87.4059 31.5997C87.6942 31.5997 87.9506 31.6576 88.1751 31.7734C88.4019 31.8868 88.5792 32.0534 88.7068 32.2732C88.8368 32.4906 88.9018 32.7553 88.9018 33.0672C88.9018 33.1168 88.8994 33.1712 88.8947 33.2303C88.8923 33.287 88.8852 33.3461 88.8734 33.4075H86.3566C86.3874 33.7289 86.4642 33.9794 86.587 34.159C86.7099 34.3386 86.8647 34.465 87.0514 34.5383C87.2381 34.6115 87.4413 34.6481 87.6611 34.6481C87.8218 34.6481 87.9896 34.6316 88.1645 34.5985C88.3393 34.5654 88.5047 34.5134 88.6607 34.4426L88.7458 34.9459C88.6111 35.005 88.4468 35.0652 88.2531 35.1267C88.0593 35.1858 87.836 35.2153 87.5831 35.2153ZM86.4134 32.9679H88.2424C88.2424 32.8049 88.2117 32.6631 88.1503 32.5426C88.0888 32.4221 87.9955 32.3299 87.8702 32.2661C87.745 32.1999 87.5855 32.1668 87.3917 32.1668C87.1081 32.1668 86.8895 32.2377 86.7359 32.3795C86.5847 32.5189 86.4772 32.7151 86.4134 32.9679ZM89.5449 35.1444V31.6706H90.0695L90.1475 32.2448C90.3247 32.025 90.4937 31.8632 90.6544 31.7592C90.8175 31.6529 90.9912 31.5997 91.1755 31.5997C91.2346 31.5997 91.2889 31.6068 91.3385 31.6209L91.2747 32.3228C91.244 32.3157 91.2109 32.311 91.1755 32.3086C91.1424 32.3039 91.1046 32.3015 91.062 32.3015C90.8777 32.3015 90.7076 32.3429 90.5516 32.4256C90.398 32.506 90.2893 32.5946 90.2255 32.6915V35.1444H89.5449ZM93.5151 35.1444V30.1818H96.5423V30.7915H94.1886V32.2448H96.0602V32.8545H94.1886V34.5347H96.6061V35.1444H93.5151ZM96.9514 35.1444L98.1637 33.4146L96.9798 31.6706H97.6958L98.5678 33.0459L99.369 31.6706H100.113L98.9719 33.3579L100.156 35.1444H99.4398L98.5608 33.7761L97.6675 35.1444H96.9514ZM100.664 36.8601V31.6706H101.16L101.273 32.4646L101.096 32.337C101.243 32.1101 101.423 31.9305 101.639 31.7982C101.854 31.6658 102.117 31.5997 102.429 31.5997C102.746 31.5997 103.017 31.68 103.244 31.8407C103.471 32.0014 103.645 32.2188 103.765 32.493C103.886 32.7647 103.946 33.0696 103.946 33.4075C103.946 33.7454 103.889 34.0515 103.776 34.3256C103.663 34.5973 103.494 34.8136 103.269 34.9743C103.045 35.135 102.765 35.2153 102.429 35.2153C102.153 35.2153 101.902 35.1586 101.678 35.0452C101.455 34.9294 101.295 34.7569 101.195 34.5276L101.302 34.4V36.8601H100.664ZM102.308 34.6481C102.618 34.6481 102.859 34.5394 103.032 34.322C103.206 34.1023 103.294 33.7974 103.294 33.4075C103.294 33.0176 103.206 32.7139 103.032 32.4965C102.859 32.2767 102.618 32.1668 102.308 32.1668C102.117 32.1668 101.942 32.2129 101.784 32.3051C101.628 32.3949 101.503 32.5319 101.408 32.7163C101.314 32.8982 101.266 33.1286 101.266 33.4075C101.266 33.6982 101.314 33.9345 101.408 34.1164C101.503 34.2984 101.628 34.4331 101.784 34.5205C101.942 34.6056 102.117 34.6481 102.308 34.6481ZM106.276 35.2153C105.867 35.2153 105.523 35.1314 105.245 34.9636C104.966 34.7958 104.754 34.5737 104.61 34.2972C104.468 34.0184 104.397 33.7123 104.397 33.3791C104.397 33.0554 104.463 32.7588 104.596 32.4894C104.731 32.22 104.924 32.005 105.177 31.8443C105.432 31.6812 105.74 31.5997 106.099 31.5997C106.387 31.5997 106.643 31.6576 106.868 31.7734C107.095 31.8868 107.272 32.0534 107.4 32.2732C107.53 32.4906 107.595 32.7553 107.595 33.0672C107.595 33.1168 107.592 33.1712 107.588 33.2303C107.585 33.287 107.578 33.3461 107.566 33.4075H105.05C105.08 33.7289 105.157 33.9794 105.28 34.159C105.403 34.3386 105.558 34.465 105.744 34.5383C105.931 34.6115 106.134 34.6481 106.354 34.6481C106.515 34.6481 106.682 34.6316 106.857 34.5985C107.032 34.5654 107.198 34.5134 107.354 34.4426L107.439 34.9459C107.304 35.005 107.14 35.0652 106.946 35.1267C106.752 35.1858 106.529 35.2153 106.276 35.2153ZM105.106 32.9679H106.935C106.935 32.8049 106.905 32.6631 106.843 32.5426C106.782 32.4221 106.688 32.3299 106.563 32.2661C106.438 32.1999 106.278 32.1668 106.085 32.1668C105.801 32.1668 105.582 32.2377 105.429 32.3795C105.278 32.5189 105.17 32.7151 105.106 32.9679ZM108.238 35.1444V31.6706H108.762L108.84 32.2448C109.018 32.025 109.187 31.8632 109.347 31.7592C109.51 31.6529 109.684 31.5997 109.868 31.5997C109.927 31.5997 109.982 31.6068 110.031 31.6209L109.968 32.3228C109.937 32.3157 109.904 32.311 109.868 32.3086C109.835 32.3039 109.797 32.3015 109.755 32.3015C109.571 32.3015 109.4 32.3429 109.245 32.4256C109.091 32.506 108.982 32.5946 108.918 32.6915V35.1444H108.238ZM110.481 35.1444V31.6706H111.119V35.1444H110.481ZM110.481 30.8907V30.1818H111.119V30.8907H110.481ZM113.649 35.2153C113.241 35.2153 112.897 35.1314 112.618 34.9636C112.339 34.7958 112.127 34.5737 111.983 34.2972C111.842 34.0184 111.771 33.7123 111.771 33.3791C111.771 33.0554 111.837 32.7588 111.969 32.4894C112.104 32.22 112.298 32.005 112.55 31.8443C112.806 31.6812 113.113 31.5997 113.472 31.5997C113.76 31.5997 114.017 31.6576 114.241 31.7734C114.468 31.8868 114.645 32.0534 114.773 32.2732C114.903 32.4906 114.968 32.7553 114.968 33.0672C114.968 33.1168 114.966 33.1712 114.961 33.2303C114.959 33.287 114.951 33.3461 114.94 33.4075H112.423C112.454 33.7289 112.53 33.9794 112.653 34.159C112.776 34.3386 112.931 34.465 113.118 34.5383C113.304 34.6115 113.508 34.6481 113.727 34.6481C113.888 34.6481 114.056 34.6316 114.231 34.5985C114.406 34.5654 114.571 34.5134 114.727 34.4426L114.812 34.9459C114.677 35.005 114.513 35.0652 114.319 35.1267C114.126 35.1858 113.902 35.2153 113.649 35.2153ZM112.48 32.9679H114.309C114.309 32.8049 114.278 32.6631 114.216 32.5426C114.155 32.4221 114.062 32.3299 113.936 32.2661C113.811 32.1999 113.652 32.1668 113.458 32.1668C113.174 32.1668 112.956 32.2377 112.802 32.3795C112.651 32.5189 112.543 32.7151 112.48 32.9679ZM115.611 35.1444V31.6706H116.107L116.235 32.337L115.987 32.2306C116.221 31.9707 116.449 31.8005 116.671 31.7202C116.895 31.6399 117.114 31.5997 117.327 31.5997C117.835 31.5997 118.198 31.7462 118.415 32.0392C118.635 32.3323 118.745 32.7293 118.745 33.2303V35.1444H118.107V33.2303C118.107 32.8616 118.038 32.5922 117.901 32.4221C117.764 32.2519 117.53 32.1668 117.199 32.1668C116.965 32.1668 116.75 32.2188 116.554 32.3228C116.36 32.4244 116.233 32.5875 116.171 32.812L116.249 32.4221V35.1444H115.611ZM121.166 35.2153C120.774 35.2153 120.444 35.1361 120.177 34.9778C119.913 34.8171 119.712 34.6021 119.575 34.3327C119.44 34.0609 119.373 33.7596 119.373 33.4288C119.373 33.0837 119.438 32.773 119.568 32.4965C119.7 32.22 119.902 32.0014 120.174 31.8407C120.446 31.68 120.793 31.5997 121.216 31.5997C121.398 31.5997 121.569 31.6186 121.73 31.6564C121.893 31.6918 122.038 31.7415 122.166 31.8053L122.067 32.3653C121.937 32.3039 121.799 32.2555 121.652 32.22C121.508 32.1846 121.358 32.1668 121.202 32.1668C120.819 32.1668 120.527 32.2755 120.326 32.493C120.125 32.7104 120.025 33.0128 120.025 33.4004C120.025 33.7785 120.121 34.0822 120.312 34.3114C120.504 34.5406 120.795 34.6552 121.188 34.6552C121.348 34.6552 121.502 34.6363 121.648 34.5985C121.797 34.5607 121.939 34.5087 122.074 34.4426L122.159 34.953C122.064 35.0192 121.926 35.0794 121.744 35.1338C121.562 35.1881 121.37 35.2153 121.166 35.2153ZM124.408 35.2153C123.999 35.2153 123.655 35.1314 123.377 34.9636C123.098 34.7958 122.886 34.5737 122.742 34.2972C122.6 34.0184 122.529 33.7123 122.529 33.3791C122.529 33.0554 122.596 32.7588 122.728 32.4894C122.863 32.22 123.056 32.005 123.309 31.8443C123.564 31.6812 123.872 31.5997 124.231 31.5997C124.519 31.5997 124.776 31.6576 125 31.7734C125.227 31.8868 125.404 32.0534 125.532 32.2732C125.662 32.4906 125.727 32.7553 125.727 33.0672C125.727 33.1168 125.724 33.1712 125.72 33.2303C125.717 33.287 125.71 33.3461 125.698 33.4075H123.182C123.212 33.7289 123.289 33.9794 123.412 34.159C123.535 34.3386 123.69 34.465 123.876 34.5383C124.063 34.6115 124.266 34.6481 124.486 34.6481C124.647 34.6481 124.815 34.6316 124.989 34.5985C125.164 34.5654 125.33 34.5134 125.486 34.4426L125.571 34.9459C125.436 35.005 125.272 35.0652 125.078 35.1267C124.884 35.1858 124.661 35.2153 124.408 35.2153ZM123.238 32.9679H125.067C125.067 32.8049 125.037 32.6631 124.975 32.5426C124.914 32.4221 124.821 32.3299 124.695 32.2661C124.57 32.1999 124.41 32.1668 124.217 32.1668C123.933 32.1668 123.715 32.2377 123.561 32.3795C123.41 32.5189 123.302 32.7151 123.238 32.9679Z" fill="white"/>
<path d="M78.1425 19.8453C76.4891 21.6135 74.652 22.7158 71.5519 22.7158C66.8213 22.7158 63.3079 19.0645 63.3079 14.4488V14.4029C63.3079 9.8331 66.7525 6.09001 71.6897 6.09001C74.7209 6.09001 76.535 7.10041 78.0277 8.57009L75.7772 11.165C74.5372 10.0398 73.2742 9.35086 71.6667 9.35086C68.957 9.35086 67.0051 11.6013 67.0051 14.357V14.4029C67.0051 17.1585 68.911 19.4549 71.6667 19.4549C73.5038 19.4549 74.629 18.7201 75.892 17.5719L78.1425 19.8453ZM92.5931 17.6867C92.5931 20.8787 90.159 22.6698 86.6914 22.6698C84.2573 22.6698 81.8002 21.8202 79.8712 20.0979L81.9609 17.5948C83.4076 18.789 84.9232 19.5468 86.7603 19.5468C88.207 19.5468 89.0797 18.9727 89.0797 18.0311V17.9852C89.0797 17.0896 88.5285 16.6304 85.8418 15.9414C82.6039 15.1148 80.5142 14.2192 80.5142 11.0272V10.9813C80.5142 8.06489 82.8565 6.13594 86.1403 6.13594C88.4826 6.13594 90.4805 6.87077 92.1109 8.17971L90.2738 10.8435C88.85 9.85606 87.4492 9.259 86.0944 9.259C84.7395 9.259 84.0276 9.87902 84.0276 10.6598V10.7057C84.0276 11.762 84.7166 12.1065 87.4952 12.8184C90.756 13.668 92.5931 14.8392 92.5931 17.6408V17.6867ZM109.248 22.4402H105.114L101.509 16.9289L97.8807 22.4402H93.862L99.4652 14.2651L94.0917 6.36557H98.2252L101.601 11.5783L104.999 6.36557H109.018L103.645 14.2192L109.248 22.4402ZM124.62 11.9687C124.62 15.6888 121.727 17.6178 118.121 17.6178H115.435V22.4402H111.898V6.36557H118.466C122.301 6.36557 124.62 8.63898 124.62 11.9228V11.9687ZM121.038 12.0376V11.9917C121.038 10.4072 119.936 9.55753 118.167 9.55753H115.435V14.4718H118.236C120.004 14.4718 121.038 13.4154 121.038 12.0376Z" fill="white"/>
<g clip-path="url(#clip0_358_2230)">
<path d="M40.2012 9.03504C41.4922 9.03504 42.5388 7.98844 42.5388 6.69739C42.5388 5.40634 41.4922 4.35974 40.2012 4.35974C38.9101 4.35974 37.8635 5.40634 37.8635 6.69739C37.8635 7.98844 38.9101 9.03504 40.2012 9.03504Z" fill="white"/>
<path d="M44.9574 0.134521C50.7571 0.134521 52.7118 4.83948 53.3158 7.09085C53.3158 7.09085 53.5396 7.74334 53.5612 11.3806C53.5612 11.3806 58.5924 11.7095 58.5924 16.4118V21.1194C58.5924 21.1194 58.5088 25.8163 53.8982 25.8163H53.607C53.607 25.8163 53.5423 30.9958 49.2337 33.0638C44.9251 35.1318 42.9676 36.054 42.9676 36.054C42.9676 36.054 42.9676 36.9168 41.819 37.4344C40.6704 37.9521 39.8076 38.0654 39.1227 37.4344C38.4379 36.8035 38.6617 35.5929 39.1794 35.1912C39.1794 35.1912 40.2282 34.3985 40.8214 34.2259C41.0795 34.1321 41.3554 34.098 41.6286 34.126C41.9017 34.154 42.165 34.2435 42.3987 34.3877C42.3987 34.3877 44.9278 33.2364 48.4329 31.3409C49.4339 30.8136 50.2674 30.0167 50.8392 29.0404C51.411 28.0641 51.6982 26.9473 51.6684 25.8163V8.82993C51.6684 8.82993 51.7439 2.12705 44.9682 2.12705H44.7444C44.4813 2.12705 44.2289 2.02251 44.0428 1.83644C43.8567 1.65036 43.7522 1.39798 43.7522 1.13483C43.7522 0.871677 43.8567 0.619302 44.0428 0.433225C44.2289 0.247147 44.4813 0.14261 44.7444 0.14261L44.9574 0.134521Z" fill="white"/>
<path d="M45.874 18.639C44.6634 18.8574 43.841 19.7175 39.1711 19.7175C34.5012 19.7175 34.1129 18.248 33.7786 17.8301C33.4443 17.4122 33.4551 16.5332 33.4551 16.5332V14.7915C33.3472 13.322 31.8373 13.4433 31.8373 13.4433C31.6111 13.4451 31.3868 13.4021 31.1773 13.3166C30.9679 13.2312 30.7774 13.1052 30.617 12.9457C30.4565 12.7863 30.3293 12.5966 30.2425 12.3877C30.1558 12.1788 30.1114 11.9547 30.1117 11.7285C30.1103 11.4987 30.1562 11.2711 30.2465 11.0598C30.2465 11.0598 30.6267 10.1 31.2334 8.88667C31.2334 8.88667 32.6839 6.03673 33.0668 5.20359C33.3037 4.62108 33.4281 3.99896 33.4335 3.37014C33.4335 2.51204 33.0926 1.68907 32.4858 1.0823C31.8791 0.475526 31.0561 0.134644 30.198 0.134644L17.771 0.134644C13.0578 0.134644 8.5377 2.00694 5.205 5.33964C1.87229 8.67235 0 13.1925 0 17.9056C0 22.6188 1.87229 27.1389 5.205 30.4716C8.5377 33.8043 13.0578 35.6766 17.771 35.6766H30.5755C30.5755 35.6766 33.5602 35.8788 33.5602 32.6892V28.1756C33.5602 28.1756 33.4524 26.5579 34.5012 26.5579C36.568 26.5724 38.6198 26.2069 40.5543 25.4794C43.7547 24.3119 45.27 22.9719 46.9983 21.1654C48.7266 19.3589 47.0846 18.4233 45.874 18.639ZM25.7708 18.8412C25.6467 19.0309 25.4852 19.1933 25.2962 19.3185L16.2557 24.711C16.0478 24.8 15.824 24.8459 15.5978 24.8458C15.1487 24.8458 14.718 24.6674 14.4005 24.3498C14.083 24.0323 13.9046 23.6016 13.9046 23.1525V12.6641C13.9046 12.215 14.083 11.7844 14.4005 11.4668C14.718 11.1493 15.1487 10.9709 15.5978 10.9709C15.8238 10.9698 16.0476 11.0148 16.2557 11.103L25.2908 16.4955C25.6655 16.7429 25.9265 17.1291 26.0165 17.569C26.1065 18.0089 26.0181 18.4665 25.7708 18.8412Z" fill="white"/>
</g>
<defs>
<clipPath id="clip0_358_2230">
<rect width="58.5949" height="37.7313" fill="white" transform="translate(0 0.134399)"/>
</clipPath>
</defs>
</svg>
