<svg width="126" height="38" viewBox="0 0 126 38" fill="none" xmlns="http://www.w3.org/2000/svg">
<path d="M64.8699 35.2435C64.3878 35.2435 63.9577 35.1383 63.5796 34.928C63.2039 34.7153 62.9073 34.4164 62.6899 34.0312C62.4748 33.6437 62.3673 33.1876 62.3673 32.6629C62.3673 32.1383 62.476 31.6834 62.6934 31.2982C62.9132 30.9107 63.2133 30.6117 63.5938 30.4014C63.9766 30.1887 64.4114 30.0824 64.8982 30.0824C65.1511 30.0824 65.3921 30.1096 65.6214 30.1639C65.8506 30.2183 66.0515 30.288 66.224 30.3731L66.1531 30.9969C65.9758 30.9119 65.7809 30.8398 65.5682 30.7807C65.3555 30.7216 65.1298 30.6921 64.8912 30.6921C64.5012 30.6921 64.1739 30.7807 63.9093 30.9579C63.6446 31.1328 63.4437 31.3691 63.3067 31.6669C63.172 31.9646 63.1046 32.2967 63.1046 32.6629C63.1046 33.0292 63.1708 33.3613 63.3031 33.659C63.4378 33.9568 63.6363 34.1943 63.8986 34.3715C64.1633 34.5464 64.4894 34.6338 64.877 34.6338C65.1227 34.6338 65.3496 34.6078 65.5576 34.5558C65.7679 34.5015 65.9664 34.4282 66.1531 34.3361L66.224 34.9599C66.0467 35.0403 65.8471 35.1076 65.6249 35.162C65.4028 35.2163 65.1511 35.2435 64.8699 35.2435ZM68.0358 35.2152C67.764 35.2152 67.5324 35.1608 67.341 35.0521C67.1496 34.941 67.0031 34.7732 66.9015 34.5487C66.8022 34.3242 66.7526 34.0383 66.7526 33.6909V31.6704H67.3906V33.5137C67.3906 33.8823 67.4533 34.1635 67.5785 34.3573C67.7061 34.5511 67.9129 34.648 68.1988 34.648C68.395 34.648 68.5769 34.6007 68.7447 34.5062C68.9125 34.4117 69.0283 34.2604 69.0921 34.0525L68.9999 34.3999V31.6704H69.638V35.1443H69.0708L68.9432 34.4637L69.1134 34.5771C68.9976 34.7921 68.8558 34.9528 68.688 35.0592C68.5226 35.1632 68.3052 35.2152 68.0358 35.2152ZM71.4913 35.2152C71.1841 35.2152 70.9288 35.1785 70.7256 35.1053C70.5247 35.032 70.383 34.967 70.3002 34.9103L70.3782 34.2935C70.4538 34.3597 70.5874 34.4353 70.7788 34.5204C70.9702 34.6055 71.1982 34.648 71.4629 34.648C71.6874 34.648 71.8587 34.6102 71.9769 34.5346C72.0974 34.4589 72.1577 34.3526 72.1577 34.2155C72.1577 34.095 72.1187 33.9981 72.0407 33.9249C71.9651 33.8492 71.8729 33.7902 71.7642 33.7476C71.6579 33.7027 71.5574 33.6673 71.4629 33.6413C71.3046 33.5988 71.1403 33.5456 70.9702 33.4818C70.8024 33.4156 70.6606 33.3175 70.5448 33.1876C70.429 33.0576 70.3711 32.8756 70.3711 32.6417C70.3711 32.4644 70.4137 32.2967 70.4987 32.1383C70.5838 31.9776 70.7221 31.8477 70.9135 31.7484C71.1049 31.6492 71.3589 31.5995 71.6756 31.5995C71.9072 31.5995 72.0951 31.6243 72.2392 31.674C72.3857 31.7212 72.5122 31.772 72.6185 31.8264L72.5405 32.4077C72.4389 32.3227 72.3207 32.2506 72.186 32.1915C72.0513 32.1324 71.8859 32.1029 71.6898 32.1029C71.4913 32.1029 71.3294 32.1407 71.2041 32.2163C71.0789 32.2896 71.0163 32.4077 71.0163 32.5708C71.0163 32.7338 71.0824 32.8496 71.2148 32.9182C71.3495 32.9867 71.5527 33.0623 71.8245 33.145C71.9096 33.1687 72.0076 33.2029 72.1187 33.2478C72.2321 33.2927 72.342 33.353 72.4483 33.4286C72.5547 33.5042 72.6421 33.6035 72.7107 33.7264C72.7816 33.8469 72.817 33.9981 72.817 34.1801C72.817 34.3337 72.7804 34.4908 72.7071 34.6515C72.6339 34.8099 72.5015 34.9434 72.3101 35.0521C72.1187 35.1608 71.8457 35.2152 71.4913 35.2152ZM74.6394 35.2152C74.4197 35.2152 74.2436 35.175 74.1113 35.0946C73.9789 35.0143 73.882 34.9115 73.8206 34.7862C73.7615 34.6586 73.732 34.5251 73.732 34.3857V32.1667H73.1365L73.1932 31.6704H73.732V30.8126L74.37 30.7488V31.6704H75.2846V32.1667H74.37V33.9958C74.37 34.2179 74.383 34.3786 74.409 34.4778C74.435 34.5771 74.4988 34.6397 74.6004 34.6657C74.7044 34.6917 74.871 34.7047 75.1002 34.7047H75.2633L75.2137 35.2152H74.6394ZM77.3193 35.2152C76.9554 35.2152 76.6446 35.1348 76.387 34.9741C76.1318 34.8111 75.9357 34.5936 75.7986 34.3219C75.6639 34.0478 75.5966 33.7429 75.5966 33.4073C75.5966 33.0718 75.6639 32.7681 75.7986 32.4963C75.9357 32.2222 76.1318 32.0048 76.387 31.8441C76.6446 31.6811 76.9554 31.5995 77.3193 31.5995C77.6809 31.5995 77.9904 31.6811 78.248 31.8441C78.5056 32.0048 78.7017 32.2222 78.8364 32.4963C78.9735 32.7681 79.042 33.0718 79.042 33.4073C79.042 33.7429 78.9735 34.0478 78.8364 34.3219C78.7017 34.5936 78.5056 34.8111 78.248 34.9741C77.9904 35.1348 77.6809 35.2152 77.3193 35.2152ZM77.3193 34.648C77.6643 34.648 77.929 34.5393 78.1133 34.3219C78.2976 34.1021 78.3898 33.7973 78.3898 33.4073C78.3898 33.0174 78.2976 32.7138 78.1133 32.4963C77.929 32.2766 77.6643 32.1667 77.3193 32.1667C76.9766 32.1667 76.712 32.2766 76.5253 32.4963C76.341 32.7138 76.2488 33.0174 76.2488 33.4073C76.2488 33.7973 76.341 34.1021 76.5253 34.3219C76.712 34.5393 76.9766 34.648 77.3193 34.648ZM79.7 35.1443V31.6704H80.1962L80.3238 32.3368L80.0828 32.2234C80.3002 31.9894 80.5117 31.8276 80.7173 31.7378C80.9229 31.6456 81.1391 31.5995 81.366 31.5995C81.5361 31.5995 81.6992 31.6279 81.8552 31.6846C82.0135 31.739 82.1553 31.8358 82.2805 31.9753C82.4081 32.1123 82.5098 32.3037 82.5854 32.5495L82.4081 32.4715C82.5121 32.2021 82.6716 31.9894 82.8867 31.8335C83.1017 31.6775 83.3912 31.5995 83.7551 31.5995C84.0458 31.5995 84.2904 31.6539 84.4889 31.7626C84.6874 31.8689 84.8363 32.0332 84.9355 32.2553C85.0372 32.4751 85.088 32.7551 85.088 33.0954V35.1443H84.4499V33.1025C84.4499 32.7764 84.3861 32.5389 84.2585 32.39C84.1309 32.2411 83.9229 32.1667 83.6346 32.1667C83.4314 32.1667 83.2683 32.1986 83.1455 32.2624C83.0226 32.3238 82.9292 32.4042 82.8654 32.5034C82.804 32.6027 82.7626 32.7078 82.7414 32.8189C82.7224 32.93 82.713 33.034 82.713 33.1309V35.1443H82.0749V33.2301C82.0749 32.9465 82.0407 32.7279 81.9721 32.5743C81.9036 32.4207 81.8079 32.3144 81.685 32.2553C81.5621 32.1962 81.4204 32.1667 81.2597 32.1667C81.0257 32.1667 80.8166 32.2187 80.6322 32.3227C80.4479 32.4243 80.3238 32.5873 80.26 32.8118L80.338 32.4644V35.1443H79.7ZM87.5831 35.2152C87.1743 35.2152 86.8305 35.1313 86.5516 34.9635C86.2727 34.7957 86.0612 34.5736 85.9171 34.2971C85.7753 34.0182 85.7044 33.7122 85.7044 33.379C85.7044 33.0552 85.7706 32.7587 85.9029 32.4893C86.0376 32.2199 86.2314 32.0048 86.4843 31.8441C86.7395 31.6811 87.0467 31.5995 87.4059 31.5995C87.6942 31.5995 87.9506 31.6574 88.1751 31.7732C88.4019 31.8867 88.5792 32.0533 88.7068 32.273C88.8368 32.4904 88.9018 32.7551 88.9018 33.067C88.9018 33.1167 88.8994 33.171 88.8947 33.2301C88.8923 33.2868 88.8852 33.3459 88.8734 33.4073H86.3566C86.3874 33.7287 86.4642 33.9792 86.587 34.1588C86.7099 34.3384 86.8647 34.4649 87.0514 34.5381C87.2381 34.6114 87.4413 34.648 87.6611 34.648C87.8218 34.648 87.9896 34.6315 88.1645 34.5984C88.3393 34.5653 88.5047 34.5133 88.6607 34.4424L88.7458 34.9458C88.6111 35.0048 88.4468 35.0651 88.2531 35.1265C88.0593 35.1856 87.836 35.2152 87.5831 35.2152ZM86.4134 32.9678H88.2424C88.2424 32.8047 88.2117 32.6629 88.1503 32.5424C88.0888 32.4219 87.9955 32.3297 87.8702 32.2659C87.745 32.1998 87.5855 32.1667 87.3917 32.1667C87.1081 32.1667 86.8895 32.2376 86.7359 32.3794C86.5847 32.5188 86.4772 32.7149 86.4134 32.9678ZM89.5449 35.1443V31.6704H90.0695L90.1475 32.2447C90.3247 32.0249 90.4937 31.863 90.6544 31.759C90.8175 31.6527 90.9912 31.5995 91.1755 31.5995C91.2346 31.5995 91.2889 31.6066 91.3385 31.6208L91.2747 32.3227C91.244 32.3156 91.2109 32.3108 91.1755 32.3085C91.1424 32.3037 91.1046 32.3014 91.062 32.3014C90.8777 32.3014 90.7076 32.3427 90.5516 32.4255C90.398 32.5058 90.2893 32.5944 90.2255 32.6913V35.1443H89.5449ZM93.5151 35.1443V30.1816H96.5423V30.7913H94.1886V32.2447H96.0602V32.8544H94.1886V34.5346H96.6061V35.1443H93.5151ZM96.9514 35.1443L98.1637 33.4144L96.9798 31.6704H97.6958L98.5678 33.0458L99.369 31.6704H100.113L98.9719 33.3577L100.156 35.1443H99.4398L98.5608 33.776L97.6675 35.1443H96.9514ZM100.664 36.8599V31.6704H101.16L101.273 32.4644L101.096 32.3368C101.243 32.11 101.423 31.9304 101.639 31.798C101.854 31.6657 102.117 31.5995 102.429 31.5995C102.746 31.5995 103.017 31.6799 103.244 31.8406C103.471 32.0013 103.645 32.2187 103.765 32.4928C103.886 32.7646 103.946 33.0694 103.946 33.4073C103.946 33.7453 103.889 34.0513 103.776 34.3254C103.663 34.5972 103.494 34.8134 103.269 34.9741C103.045 35.1348 102.765 35.2152 102.429 35.2152C102.153 35.2152 101.902 35.1584 101.678 35.045C101.455 34.9292 101.295 34.7567 101.195 34.5275L101.302 34.3999V36.8599H100.664ZM102.308 34.648C102.618 34.648 102.859 34.5393 103.032 34.3219C103.206 34.1021 103.294 33.7973 103.294 33.4073C103.294 33.0174 103.206 32.7138 103.032 32.4963C102.859 32.2766 102.618 32.1667 102.308 32.1667C102.117 32.1667 101.942 32.2128 101.784 32.3049C101.628 32.3947 101.503 32.5318 101.408 32.7161C101.314 32.8981 101.266 33.1285 101.266 33.4073C101.266 33.698 101.314 33.9343 101.408 34.1163C101.503 34.2982 101.628 34.4329 101.784 34.5204C101.942 34.6055 102.117 34.648 102.308 34.648ZM106.276 35.2152C105.867 35.2152 105.523 35.1313 105.245 34.9635C104.966 34.7957 104.754 34.5736 104.61 34.2971C104.468 34.0182 104.397 33.7122 104.397 33.379C104.397 33.0552 104.463 32.7587 104.596 32.4893C104.731 32.2199 104.924 32.0048 105.177 31.8441C105.432 31.6811 105.74 31.5995 106.099 31.5995C106.387 31.5995 106.643 31.6574 106.868 31.7732C107.095 31.8867 107.272 32.0533 107.4 32.273C107.53 32.4904 107.595 32.7551 107.595 33.067C107.595 33.1167 107.592 33.171 107.588 33.2301C107.585 33.2868 107.578 33.3459 107.566 33.4073H105.05C105.08 33.7287 105.157 33.9792 105.28 34.1588C105.403 34.3384 105.558 34.4649 105.744 34.5381C105.931 34.6114 106.134 34.648 106.354 34.648C106.515 34.648 106.682 34.6315 106.857 34.5984C107.032 34.5653 107.198 34.5133 107.354 34.4424L107.439 34.9458C107.304 35.0048 107.14 35.0651 106.946 35.1265C106.752 35.1856 106.529 35.2152 106.276 35.2152ZM105.106 32.9678H106.935C106.935 32.8047 106.905 32.6629 106.843 32.5424C106.782 32.4219 106.688 32.3297 106.563 32.2659C106.438 32.1998 106.278 32.1667 106.085 32.1667C105.801 32.1667 105.582 32.2376 105.429 32.3794C105.278 32.5188 105.17 32.7149 105.106 32.9678ZM108.238 35.1443V31.6704H108.762L108.84 32.2447C109.018 32.0249 109.187 31.863 109.347 31.759C109.51 31.6527 109.684 31.5995 109.868 31.5995C109.927 31.5995 109.982 31.6066 110.031 31.6208L109.968 32.3227C109.937 32.3156 109.904 32.3108 109.868 32.3085C109.835 32.3037 109.797 32.3014 109.755 32.3014C109.571 32.3014 109.4 32.3427 109.245 32.4255C109.091 32.5058 108.982 32.5944 108.918 32.6913V35.1443H108.238ZM110.481 35.1443V31.6704H111.119V35.1443H110.481ZM110.481 30.8906V30.1816H111.119V30.8906H110.481ZM113.649 35.2152C113.241 35.2152 112.897 35.1313 112.618 34.9635C112.339 34.7957 112.127 34.5736 111.983 34.2971C111.842 34.0182 111.771 33.7122 111.771 33.379C111.771 33.0552 111.837 32.7587 111.969 32.4893C112.104 32.2199 112.298 32.0048 112.55 31.8441C112.806 31.6811 113.113 31.5995 113.472 31.5995C113.76 31.5995 114.017 31.6574 114.241 31.7732C114.468 31.8867 114.645 32.0533 114.773 32.273C114.903 32.4904 114.968 32.7551 114.968 33.067C114.968 33.1167 114.966 33.171 114.961 33.2301C114.959 33.2868 114.951 33.3459 114.94 33.4073H112.423C112.454 33.7287 112.53 33.9792 112.653 34.1588C112.776 34.3384 112.931 34.4649 113.118 34.5381C113.304 34.6114 113.508 34.648 113.727 34.648C113.888 34.648 114.056 34.6315 114.231 34.5984C114.406 34.5653 114.571 34.5133 114.727 34.4424L114.812 34.9458C114.677 35.0048 114.513 35.0651 114.319 35.1265C114.126 35.1856 113.902 35.2152 113.649 35.2152ZM112.48 32.9678H114.309C114.309 32.8047 114.278 32.6629 114.216 32.5424C114.155 32.4219 114.062 32.3297 113.936 32.2659C113.811 32.1998 113.652 32.1667 113.458 32.1667C113.174 32.1667 112.956 32.2376 112.802 32.3794C112.651 32.5188 112.543 32.7149 112.48 32.9678ZM115.611 35.1443V31.6704H116.107L116.235 32.3368L115.987 32.2305C116.221 31.9705 116.449 31.8004 116.671 31.72C116.895 31.6397 117.114 31.5995 117.327 31.5995C117.835 31.5995 118.198 31.746 118.415 32.0391C118.635 32.3321 118.745 32.7291 118.745 33.2301V35.1443H118.107V33.2301C118.107 32.8615 118.038 32.5921 117.901 32.4219C117.764 32.2518 117.53 32.1667 117.199 32.1667C116.965 32.1667 116.75 32.2187 116.554 32.3227C116.36 32.4243 116.233 32.5873 116.171 32.8118L116.249 32.4219V35.1443H115.611ZM121.166 35.2152C120.774 35.2152 120.444 35.136 120.177 34.9777C119.913 34.817 119.712 34.6019 119.575 34.3325C119.44 34.0608 119.373 33.7594 119.373 33.4286C119.373 33.0836 119.438 32.7728 119.568 32.4963C119.7 32.2199 119.902 32.0013 120.174 31.8406C120.446 31.6799 120.793 31.5995 121.216 31.5995C121.398 31.5995 121.569 31.6184 121.73 31.6562C121.893 31.6917 122.038 31.7413 122.166 31.8051L122.067 32.3652C121.937 32.3037 121.799 32.2553 121.652 32.2199C121.508 32.1844 121.358 32.1667 121.202 32.1667C120.819 32.1667 120.527 32.2754 120.326 32.4928C120.125 32.7102 120.025 33.0127 120.025 33.4003C120.025 33.7784 120.121 34.082 120.312 34.3112C120.504 34.5405 120.795 34.6551 121.188 34.6551C121.348 34.6551 121.502 34.6362 121.648 34.5984C121.797 34.5606 121.939 34.5086 122.074 34.4424L122.159 34.9528C122.064 35.019 121.926 35.0793 121.744 35.1336C121.562 35.188 121.37 35.2152 121.166 35.2152ZM124.408 35.2152C123.999 35.2152 123.655 35.1313 123.377 34.9635C123.098 34.7957 122.886 34.5736 122.742 34.2971C122.6 34.0182 122.529 33.7122 122.529 33.379C122.529 33.0552 122.596 32.7587 122.728 32.4893C122.863 32.2199 123.056 32.0048 123.309 31.8441C123.564 31.6811 123.872 31.5995 124.231 31.5995C124.519 31.5995 124.776 31.6574 125 31.7732C125.227 31.8867 125.404 32.0533 125.532 32.273C125.662 32.4904 125.727 32.7551 125.727 33.067C125.727 33.1167 125.724 33.171 125.72 33.2301C125.717 33.2868 125.71 33.3459 125.698 33.4073H123.182C123.212 33.7287 123.289 33.9792 123.412 34.1588C123.535 34.3384 123.69 34.4649 123.876 34.5381C124.063 34.6114 124.266 34.648 124.486 34.648C124.647 34.648 124.815 34.6315 124.989 34.5984C125.164 34.5653 125.33 34.5133 125.486 34.4424L125.571 34.9458C125.436 35.0048 125.272 35.0651 125.078 35.1265C124.884 35.1856 124.661 35.2152 124.408 35.2152ZM123.238 32.9678H125.067C125.067 32.8047 125.037 32.6629 124.975 32.5424C124.914 32.4219 124.821 32.3297 124.695 32.2659C124.57 32.1998 124.41 32.1667 124.217 32.1667C123.933 32.1667 123.715 32.2376 123.561 32.3794C123.41 32.5188 123.302 32.7149 123.238 32.9678Z" fill="url(#paint0_linear_351_178)"/>
<path d="M78.1425 19.8452C76.4891 21.6134 74.652 22.7156 71.5519 22.7156C66.8213 22.7156 63.3079 19.0644 63.3079 14.4487V14.4028C63.3079 9.83297 66.7525 6.08989 71.6897 6.08989C74.7209 6.08989 76.535 7.10029 78.0277 8.56997L75.7772 11.1649C74.5372 10.0396 73.2742 9.35074 71.6667 9.35074C68.957 9.35074 67.0051 11.6012 67.0051 14.3568V14.4028C67.0051 17.1584 68.911 19.4548 71.6667 19.4548C73.5038 19.4548 74.629 18.7199 75.892 17.5718L78.1425 19.8452ZM92.5931 17.6866C92.5931 20.8785 90.159 22.6697 86.6914 22.6697C84.2573 22.6697 81.8002 21.82 79.8712 20.0978L81.9609 17.5947C83.4076 18.7888 84.9232 19.5466 86.7603 19.5466C88.207 19.5466 89.0797 18.9725 89.0797 18.031V17.9851C89.0797 17.0895 88.5285 16.6302 85.8418 15.9413C82.6039 15.1146 80.5142 14.219 80.5142 11.0271V10.9812C80.5142 8.06477 82.8565 6.13581 86.1403 6.13581C88.4826 6.13581 90.4805 6.87065 92.1109 8.17958L90.2738 10.8434C88.85 9.85594 87.4492 9.25888 86.0944 9.25888C84.7395 9.25888 84.0276 9.8789 84.0276 10.6597V10.7056C84.0276 11.7619 84.7166 12.1064 87.4952 12.8183C90.756 13.6679 92.5931 14.8391 92.5931 17.6406V17.6866ZM109.248 22.4401H105.114L101.509 16.9288L97.8807 22.4401H93.862L99.4652 14.265L94.0917 6.36545H98.2252L101.601 11.5782L104.999 6.36545H109.018L103.645 14.219L109.248 22.4401ZM124.62 11.9686C124.62 15.6887 121.727 17.6177 118.121 17.6177H115.435V22.4401H111.898V6.36545H118.466C122.301 6.36545 124.62 8.63886 124.62 11.9227V11.9686ZM121.038 12.0375V11.9916C121.038 10.4071 119.936 9.55741 118.167 9.55741H115.435V14.4716H118.236C120.004 14.4716 121.038 13.4153 121.038 12.0375Z" fill="url(#paint1_linear_351_178)"/>
<g clip-path="url(#clip0_351_178)">
<path d="M40.2012 9.03495C41.4922 9.03495 42.5388 7.98835 42.5388 6.6973C42.5388 5.40625 41.4922 4.35965 40.2012 4.35965C38.9101 4.35965 37.8635 5.40625 37.8635 6.6973C37.8635 7.98835 38.9101 9.03495 40.2012 9.03495Z" fill="url(#paint2_linear_351_178)"/>
<path d="M44.9574 0.13443C50.7571 0.13443 52.7118 4.83939 53.3158 7.09075C53.3158 7.09075 53.5396 7.74325 53.5612 11.3805C53.5612 11.3805 58.5924 11.7094 58.5924 16.4117V21.1193C58.5924 21.1193 58.5088 25.8162 53.8982 25.8162H53.607C53.607 25.8162 53.5423 30.9957 49.2337 33.0637C44.9251 35.1317 42.9676 36.0539 42.9676 36.0539C42.9676 36.0539 42.9676 36.9167 41.819 37.4343C40.6704 37.952 39.8076 38.0653 39.1227 37.4343C38.4379 36.8034 38.6617 35.5928 39.1794 35.1911C39.1794 35.1911 40.2282 34.3984 40.8214 34.2258C41.0795 34.132 41.3554 34.0979 41.6286 34.1259C41.9017 34.1539 42.165 34.2434 42.3987 34.3876C42.3987 34.3876 44.9278 33.2363 48.4329 31.3408C49.4339 30.8135 50.2674 30.0166 50.8392 29.0403C51.411 28.064 51.6982 26.9472 51.6684 25.8162V8.82983C51.6684 8.82983 51.7439 2.12696 44.9682 2.12696H44.7444C44.4813 2.12696 44.2289 2.02242 44.0428 1.83634C43.8567 1.65027 43.7522 1.39789 43.7522 1.13474C43.7522 0.871585 43.8567 0.61921 44.0428 0.433133C44.2289 0.247056 44.4813 0.142519 44.7444 0.142519L44.9574 0.13443Z" fill="url(#paint3_linear_351_178)"/>
<path d="M45.874 18.6389C44.6634 18.8573 43.841 19.7174 39.1711 19.7174C34.5012 19.7174 34.1129 18.2479 33.7786 17.83C33.4443 17.4121 33.4551 16.5331 33.4551 16.5331V14.7913C33.3472 13.3219 31.8373 13.4432 31.8373 13.4432C31.6111 13.445 31.3868 13.4019 31.1773 13.3165C30.9679 13.2311 30.7774 13.105 30.617 12.9456C30.4565 12.7861 30.3293 12.5965 30.2425 12.3876C30.1558 12.1786 30.1114 11.9546 30.1117 11.7284C30.1103 11.4986 30.1562 11.271 30.2465 11.0597C30.2465 11.0597 30.6267 10.0999 31.2334 8.88655C31.2334 8.88655 32.6839 6.03661 33.0668 5.20347C33.3037 4.62095 33.4281 3.99884 33.4335 3.37002C33.4335 2.51191 33.0926 1.68895 32.4858 1.08218C31.8791 0.475403 31.0561 0.134521 30.198 0.134521L17.771 0.134521C13.0578 0.134521 8.5377 2.00682 5.205 5.33952C1.87229 8.67223 0 13.1923 0 17.9055C0 22.6187 1.87229 27.1388 5.205 30.4715C8.5377 33.8042 13.0578 35.6765 17.771 35.6765H30.5755C30.5755 35.6765 33.5602 35.8787 33.5602 32.689V28.1755C33.5602 28.1755 33.4524 26.5578 34.5012 26.5578C36.568 26.5723 38.6198 26.2067 40.5543 25.4793C43.7547 24.3118 45.27 22.9718 46.9983 21.1653C48.7266 19.3588 47.0846 18.4232 45.874 18.6389ZM25.7708 18.8411C25.6467 19.0308 25.4852 19.1932 25.2962 19.3183L16.2557 24.7108C16.0478 24.7999 15.824 24.8458 15.5978 24.8456C15.1487 24.8456 14.718 24.6673 14.4005 24.3497C14.083 24.0322 13.9046 23.6015 13.9046 23.1524V12.664C13.9046 12.2149 14.083 11.7842 14.4005 11.4667C14.718 11.1491 15.1487 10.9707 15.5978 10.9707C15.8238 10.9697 16.0476 11.0147 16.2557 11.1029L25.2908 16.4954C25.6655 16.7428 25.9265 17.129 26.0165 17.5688C26.1065 18.0087 26.0181 18.4664 25.7708 18.8411Z" fill="url(#paint4_linear_351_178)"/>
</g>
<defs>
<linearGradient id="paint0_linear_351_178" x1="66.245" y1="26.8843" x2="80.3268" y2="61.9317" gradientUnits="userSpaceOnUse">
<stop stop-color="#E15757"/>
<stop offset="1" stop-color="#D7A801"/>
</linearGradient>
<linearGradient id="paint1_linear_351_178" x1="66.245" y1="-2.05994" x2="122.441" y2="48.2908" gradientUnits="userSpaceOnUse">
<stop stop-color="#E15757"/>
<stop offset="1" stop-color="#D7A801"/>
</linearGradient>
<linearGradient id="paint2_linear_351_178" x1="38.167" y1="3.70511" x2="44.7602" y2="6.01268" gradientUnits="userSpaceOnUse">
<stop stop-color="#E15757"/>
<stop offset="1" stop-color="#D7A801"/>
</linearGradient>
<linearGradient id="paint3_linear_351_178" x1="39.9857" y1="-5.14801" x2="70.4461" y2="0.474188" gradientUnits="userSpaceOnUse">
<stop stop-color="#E15757"/>
<stop offset="1" stop-color="#D7A801"/>
</linearGradient>
<linearGradient id="paint4_linear_351_178" x1="3.09923" y1="-4.84171" x2="64.9989" y2="24.2604" gradientUnits="userSpaceOnUse">
<stop stop-color="#E15757"/>
<stop offset="1" stop-color="#D7A801"/>
</linearGradient>
<clipPath id="clip0_351_178">
<rect width="58.5949" height="37.7313" fill="white" transform="translate(0 0.134308)"/>
</clipPath>
</defs>
</svg>
