<svg width="24" height="26" viewBox="0 0 24 26" fill="none" xmlns="http://www.w3.org/2000/svg">
<path d="M15.0469 14.235C15.0469 13.8902 14.9123 13.5596 14.6728 13.3158C14.4332 13.072 14.1083 12.935 13.7696 12.935H7.38308C7.04432 12.935 6.71944 13.072 6.4799 13.3158C6.24036 13.5596 6.10578 13.8902 6.10578 14.235C6.10578 14.5798 6.24036 14.9104 6.4799 15.1542C6.71944 15.398 7.04432 15.535 7.38308 15.535H13.7696C14.1083 15.535 14.4332 15.398 14.6728 15.1542C14.9123 14.9104 15.0469 14.5798 15.0469 14.235ZM21.4334 20.735C20.8908 20.7368 20.3629 20.9144 19.9262 21.242L17.6909 20.202L20.1305 19.058C20.5161 19.2962 20.9568 19.4263 21.4078 19.435C21.9131 19.435 22.407 19.2825 22.8271 18.9968C23.2472 18.7111 23.5746 18.3051 23.768 17.83C23.9613 17.3549 24.0119 16.8321 23.9134 16.3278C23.8148 15.8234 23.5715 15.3601 23.2142 14.9965C22.8569 14.6329 22.4018 14.3853 21.9062 14.285C21.4107 14.1846 20.897 14.2361 20.4302 14.4329C19.9634 14.6297 19.5645 14.9629 19.2838 15.3905C19.0031 15.8181 18.8532 16.3208 18.8532 16.835L16.4391 17.966C16.1084 17.7271 15.7265 17.5719 15.3251 17.513C14.9236 17.4542 14.5142 17.4935 14.1307 17.6276C13.7471 17.7618 13.4005 17.9869 13.1194 18.2845C12.8383 18.582 12.6308 18.9434 12.5142 19.3387C12.3976 19.7341 12.3751 20.152 12.4486 20.5579C12.5222 20.9638 12.6896 21.3461 12.9371 21.6731C13.1846 22.0001 13.505 22.2625 13.8719 22.4384C14.2388 22.6144 14.6416 22.6989 15.0469 22.685C15.4584 22.6852 15.863 22.5778 16.222 22.373L18.9043 23.673C18.9609 24.1704 19.1574 24.6406 19.4703 25.0271C19.7831 25.4136 20.1989 25.6999 20.6678 25.8517C21.1366 26.0034 21.6386 26.0142 22.1133 25.8826C22.588 25.751 23.0153 25.4827 23.3438 25.1099C23.6723 24.7371 23.888 24.2757 23.9651 23.7812C24.0421 23.2866 23.9772 22.7799 23.7781 22.322C23.5791 21.8641 23.2543 21.4744 22.8429 21.1998C22.4315 20.9252 21.9509 20.7773 21.4589 20.774L21.4334 20.735ZM11.215 23.335H4.82848C4.48972 23.335 4.16484 23.198 3.9253 22.9542C3.68576 22.7104 3.55118 22.3798 3.55118 22.035V3.835C3.55118 3.49022 3.68576 3.15956 3.9253 2.91576C4.16484 2.67196 4.48972 2.535 4.82848 2.535H11.215V6.435C11.215 7.46934 11.6187 8.46132 12.3373 9.19272C13.0559 9.92411 14.0306 10.335 15.0469 10.335H18.8788C18.8788 10.6798 19.0134 11.0104 19.2529 11.2542C19.4924 11.498 19.8173 11.635 20.1561 11.635C20.4948 11.635 20.8197 11.498 21.0593 11.2542C21.2988 11.0104 21.4334 10.6798 21.4334 10.335V8.957C21.4201 8.83757 21.3944 8.71992 21.3568 8.606V8.489C21.2953 8.35533 21.2134 8.23246 21.1141 8.125L13.4503 0.325C13.3447 0.223881 13.2239 0.140505 13.0926 0.0780001C13.0504 0.0704724 13.0071 0.0704724 12.9649 0.0780001C12.8577 0.0383807 12.7462 0.0121879 12.6328 0H4.82848C3.8122 0 2.83754 0.410892 2.11892 1.14228C1.4003 1.87368 0.996582 2.86566 0.996582 3.9V22.1C0.996582 23.1343 1.4003 24.1263 2.11892 24.8577C2.83754 25.5891 3.8122 26 4.82848 26H11.215C11.5537 26 11.8786 25.863 12.1182 25.6192C12.3577 25.3754 12.4923 25.0448 12.4923 24.7C12.4923 24.3552 12.3577 24.0246 12.1182 23.7808C11.8786 23.537 11.5537 23.4 11.215 23.4V23.335ZM13.7696 4.368L17.0778 7.735H15.0469C14.7081 7.735 14.3832 7.59804 14.1437 7.35424C13.9042 7.11044 13.7696 6.77978 13.7696 6.435V4.368ZM7.38308 18.135C7.04432 18.135 6.71944 18.272 6.4799 18.5158C6.24036 18.7596 6.10578 19.0902 6.10578 19.435C6.10578 19.7798 6.24036 20.1104 6.4799 20.3542C6.71944 20.598 7.04432 20.735 7.38308 20.735H8.66038C8.99915 20.735 9.32403 20.598 9.56357 20.3542C9.80311 20.1104 9.93769 19.7798 9.93769 19.435C9.93769 19.0902 9.80311 18.7596 9.56357 18.5158C9.32403 18.272 8.99915 18.135 8.66038 18.135H7.38308ZM7.38308 10.335H8.66038C8.99915 10.335 9.32403 10.198 9.56357 9.95424C9.80311 9.71044 9.93769 9.37978 9.93769 9.035C9.93769 8.69022 9.80311 8.35956 9.56357 8.11576C9.32403 7.87196 8.99915 7.735 8.66038 7.735H7.38308C7.04432 7.735 6.71944 7.87196 6.4799 8.11576C6.24036 8.35956 6.10578 8.69022 6.10578 9.035C6.10578 9.37978 6.24036 9.71044 6.4799 9.95424C6.71944 10.198 7.04432 10.335 7.38308 10.335Z" fill="white"/>
</svg>
