<svg width="24" height="26" viewBox="0 0 24 26" fill="none" xmlns="http://www.w3.org/2000/svg">
<path d="M5.2 20.8H7.93L15.73 13.065L12.935 10.27L5.2 18.005V20.8ZM16.64 12.155L18.005 10.725C18.135 10.595 18.2 10.4433 18.2 10.27C18.2 10.0967 18.135 9.945 18.005 9.815L16.185 7.995C16.055 7.865 15.9033 7.8 15.73 7.8C15.5567 7.8 15.405 7.865 15.275 7.995L13.845 9.36L16.64 12.155ZM2.6 26C1.885 26 1.2727 25.7452 0.763102 25.2356C0.253502 24.726 -0.000864459 24.1141 2.20713e-06 23.4V5.2C2.20713e-06 4.485 0.254802 3.8727 0.764402 3.3631C1.274 2.8535 1.88587 2.59913 2.6 2.6H8.06C8.34167 1.82 8.81313 1.19167 9.4744 0.715C10.1357 0.238333 10.8775 0 11.7 0C12.5233 0 13.2656 0.238333 13.9269 0.715C14.5882 1.19167 15.0592 1.82 15.34 2.6H20.8C21.515 2.6 22.1273 2.8548 22.6369 3.3644C23.1465 3.874 23.4009 4.48587 23.4 5.2V23.4C23.4 24.115 23.1452 24.7273 22.6356 25.2369C22.126 25.7465 21.5141 26.0009 20.8 26H2.6ZM2.6 23.4H20.8V5.2H2.6V23.4ZM11.7 4.225C11.9817 4.225 12.2144 4.1327 12.3981 3.9481C12.5818 3.7635 12.6741 3.5308 12.675 3.25C12.675 2.96833 12.5827 2.73563 12.3981 2.5519C12.2135 2.36817 11.9808 2.27587 11.7 2.275C11.4183 2.275 11.1856 2.3673 11.0019 2.5519C10.8182 2.7365 10.7259 2.9692 10.725 3.25C10.725 3.53167 10.8173 3.76437 11.0019 3.9481C11.1865 4.13183 11.4192 4.22413 11.7 4.225Z" fill="white"/>
</svg>
