<svg width="38" height="38" viewBox="0 0 38 38" fill="none" xmlns="http://www.w3.org/2000/svg">
<rect width="38" height="38" rx="8" fill="white"/>
<path d="M21 20.45C21 20.1848 20.8946 19.9304 20.7071 19.7429C20.5196 19.5554 20.2652 19.45 20 19.45H15C14.7348 19.45 14.4804 19.5554 14.2929 19.7429C14.1054 19.9304 14 20.1848 14 20.45C14 20.7152 14.1054 20.9696 14.2929 21.1571C14.4804 21.3446 14.7348 21.45 15 21.45H20C20.2652 21.45 20.5196 21.3446 20.7071 21.1571C20.8946 20.9696 21 20.7152 21 20.45ZM26 25.45C25.5752 25.4514 25.1619 25.588 24.82 25.84L23.07 25.04L24.98 24.16C25.2819 24.3433 25.6269 24.4433 25.98 24.45C26.3756 24.45 26.7622 24.3327 27.0911 24.1129C27.42 23.8932 27.6764 23.5808 27.8278 23.2154C27.9791 22.8499 28.0187 22.4478 27.9416 22.0598C27.8644 21.6719 27.6739 21.3155 27.3942 21.0358C27.1145 20.7561 26.7581 20.5656 26.3702 20.4884C25.9822 20.4113 25.5801 20.4509 25.2146 20.6022C24.8492 20.7536 24.5368 21.01 24.3171 21.3389C24.0973 21.6678 23.98 22.0544 23.98 22.45L22.09 23.32C21.831 23.1363 21.5321 23.0168 21.2178 22.9716C20.9035 22.9263 20.583 22.9565 20.2827 23.0597C19.9824 23.1629 19.711 23.3361 19.491 23.565C19.2709 23.7939 19.1085 24.0718 19.0172 24.376C18.9259 24.6801 18.9083 25.0015 18.9658 25.3138C19.0234 25.626 19.1545 25.9201 19.3483 26.1716C19.542 26.4232 19.7929 26.625 20.0801 26.7603C20.3673 26.8957 20.6827 26.9607 21 26.95C21.3222 26.9501 21.639 26.8675 21.92 26.71L24.02 27.71C24.0643 28.0926 24.2182 28.4543 24.4631 28.7516C24.708 29.0489 25.0335 29.2692 25.4006 29.3859C25.7677 29.5026 26.1607 29.5109 26.5323 29.4097C26.9039 29.3084 27.2385 29.1021 27.4956 28.8153C27.7528 28.5285 27.9217 28.1736 27.982 27.7932C28.0424 27.4128 27.9916 27.023 27.8357 26.6708C27.6799 26.3185 27.4256 26.0188 27.1035 25.8075C26.7814 25.5963 26.4052 25.4826 26.02 25.48L26 25.45ZM18 27.45H13C12.7348 27.45 12.4804 27.3446 12.2929 27.1571C12.1054 26.9696 12 26.7152 12 26.45V12.45C12 12.1848 12.1054 11.9304 12.2929 11.7429C12.4804 11.5554 12.7348 11.45 13 11.45H18V14.45C18 15.2456 18.3161 16.0087 18.8787 16.5713C19.4413 17.1339 20.2044 17.45 21 17.45H24C24 17.7152 24.1054 17.9696 24.2929 18.1571C24.4804 18.3446 24.7348 18.45 25 18.45C25.2652 18.45 25.5196 18.3446 25.7071 18.1571C25.8946 17.9696 26 17.7152 26 17.45V16.39C25.9896 16.2981 25.9695 16.2076 25.94 16.12V16.03C25.8919 15.9272 25.8278 15.8327 25.75 15.75L19.75 9.75C19.6673 9.67222 19.5728 9.60808 19.47 9.56C19.4369 9.55421 19.4031 9.55421 19.37 9.56C19.2861 9.52952 19.1988 9.50938 19.11 9.5H13C12.2044 9.5 11.4413 9.81607 10.8787 10.3787C10.3161 10.9413 10 11.7044 10 12.5V26.5C10 27.2956 10.3161 28.0587 10.8787 28.6213C11.4413 29.1839 12.2044 29.5 13 29.5H18C18.2652 29.5 18.5196 29.3946 18.7071 29.2071C18.8946 29.0196 19 28.7652 19 28.5C19 28.2348 18.8946 27.9804 18.7071 27.7929C18.5196 27.6054 18.2652 27.5 18 27.5V27.45ZM20 12.86L22.59 15.45H21C20.7348 15.45 20.4804 15.3446 20.2929 15.1571C20.1054 14.9696 20 14.7152 20 14.45V12.86ZM15 23.45C14.7348 23.45 14.4804 23.5554 14.2929 23.7429C14.1054 23.9304 14 24.1848 14 24.45C14 24.7152 14.1054 24.9696 14.2929 25.1571C14.4804 25.3446 14.7348 25.45 15 25.45H16C16.2652 25.45 16.5196 25.3446 16.7071 25.1571C16.8946 24.9696 17 24.7152 17 24.45C17 24.1848 16.8946 23.9304 16.7071 23.7429C16.5196 23.5554 16.2652 23.45 16 23.45H15ZM15 17.45H16C16.2652 17.45 16.5196 17.3446 16.7071 17.1571C16.8946 16.9696 17 16.7152 17 16.45C17 16.1848 16.8946 15.9304 16.7071 15.7429C16.5196 15.5554 16.2652 15.45 16 15.45H15C14.7348 15.45 14.4804 15.5554 14.2929 15.7429C14.1054 15.9304 14 16.1848 14 16.45C14 16.7152 14.1054 16.9696 14.2929 17.1571C14.4804 17.3446 14.7348 17.45 15 17.45Z" fill="#232E31"/>
</svg>
