<svg width="38" height="38" viewBox="0 0 38 38" fill="none" xmlns="http://www.w3.org/2000/svg">
<rect width="38" height="38" rx="8" fill="white"/>
<path d="M14 25.5H16.1L22.1 19.55L19.95 17.4L14 23.35V25.5ZM22.8 18.85L23.85 17.75C23.95 17.65 24 17.5333 24 17.4C24 17.2667 23.95 17.15 23.85 17.05L22.45 15.65C22.35 15.55 22.2333 15.5 22.1 15.5C21.9667 15.5 21.85 15.55 21.75 15.65L20.65 16.7L22.8 18.85ZM12 29.5C11.45 29.5 10.979 29.304 10.587 28.912C10.195 28.52 9.99934 28.0493 10 27.5V13.5C10 12.95 10.196 12.479 10.588 12.087C10.98 11.695 11.4507 11.4993 12 11.5H16.2C16.4167 10.9 16.7793 10.4167 17.288 10.05C17.7967 9.68333 18.3673 9.5 19 9.5C19.6333 9.5 20.2043 9.68333 20.713 10.05C21.2217 10.4167 21.584 10.9 21.8 11.5H26C26.55 11.5 27.021 11.696 27.413 12.088C27.805 12.48 28.0007 12.9507 28 13.5V27.5C28 28.05 27.804 28.521 27.412 28.913C27.02 29.305 26.5493 29.5007 26 29.5H12ZM12 27.5H26V13.5H12V27.5ZM19 12.75C19.2167 12.75 19.3957 12.679 19.537 12.537C19.6783 12.395 19.7493 12.216 19.75 12C19.75 11.7833 19.679 11.6043 19.537 11.463C19.395 11.3217 19.216 11.2507 19 11.25C18.7833 11.25 18.6043 11.321 18.463 11.463C18.3217 11.605 18.2507 11.784 18.25 12C18.25 12.2167 18.321 12.3957 18.463 12.537C18.605 12.6783 18.784 12.7493 19 12.75Z" fill="#232E31"/>
</svg>
