<svg width="14" height="6" viewBox="0 0 14 6" fill="none" xmlns="http://www.w3.org/2000/svg">
<path d="M13.2052 3.53848L13.2008 3.55746L12.4516 5.76157L8.73281 5.23032L8.48833 3.51932C8.09766 3.17253 7.5934 2.98101 7.07102 2.98101C6.54863 2.98101 6.04437 3.17254 5.65371 3.51933L5.40924 5.23032L1.69048 5.76159L0.947622 3.57588L0.94133 3.55745L0.936981 3.53847C0.913448 3.43794 0.916036 3.33305 0.9445 3.23381C0.972964 3.13456 1.02636 3.04425 1.09959 2.97147L1.48062 2.59045C2.21476 1.8563 3.08632 1.27395 4.04553 0.876628C5.00474 0.479311 6.03282 0.274816 7.07106 0.274817C8.1093 0.274819 9.13737 0.479318 10.0966 0.876637C11.0558 1.27396 11.9273 1.85632 12.6615 2.59047L13.0425 2.9715C13.1158 3.04428 13.1692 3.13459 13.1976 3.23383C13.2261 3.33307 13.2287 3.43795 13.2052 3.53848ZM12.1158 3.13615C9.33412 0.354455 4.80797 0.354455 2.0263 3.13613L1.71799 3.44444L2.21519 4.90702L4.72728 4.54815L4.9271 3.14957L5.01804 3.05863C5.56299 2.5149 6.30136 2.20954 7.07116 2.20954C7.84097 2.20954 8.57934 2.5149 9.12429 3.05863L9.21523 3.14957L9.41503 4.54813L11.9269 4.90703L12.424 3.44437L12.1158 3.13615Z" fill="#232323"/>
</svg>
