<svg width="11" height="10" viewBox="0 0 11 10" fill="none" xmlns="http://www.w3.org/2000/svg">
<path opacity="0.8" d="M10.3687 4.91975L5.8559 0.409402L5.55341 0.106921C5.48449 0.0384558 5.39129 3.05176e-05 5.29414 3.05176e-05C5.19699 3.05176e-05 5.10379 0.0384558 5.03487 0.106921L0.219614 4.91975C0.148992 4.9901 0.0931785 5.07388 0.0554678 5.16615C0.017757 5.25842 -0.00108688 5.35731 4.84091e-05 5.45698C0.00472001 5.86807 0.346915 6.19625 0.758016 6.19625H1.25437V10H9.33391V6.19625H9.84077C10.0405 6.19625 10.2285 6.118 10.3698 5.97668C10.4394 5.90733 10.4945 5.82485 10.532 5.73404C10.5695 5.64323 10.5886 5.54588 10.5882 5.44764C10.5882 5.2491 10.51 5.06107 10.3687 4.91975ZM5.94816 9.15916H4.64012V6.77668H5.94816V9.15916ZM8.49302 5.35537V9.15916H6.69562V6.49639C6.69562 6.23829 6.48657 6.02924 6.22846 6.02924H4.35982C4.10171 6.02924 3.89266 6.23829 3.89266 6.49639V9.15916H2.09526V5.35537H0.974077L5.29531 1.03772L5.56509 1.3075L9.61537 5.35537H8.49302Z" fill="#232323"/>
</svg>
